<svg width="420" height="410" viewBox="0 0 420 410" fill="none" xmlns="http://www.w3.org/2000/svg">
<path d="M10.5385 320.289L62 290.577L113.462 320.289V379.711L62 409.423L10.5385 379.711V320.289Z" stroke="#EBDAB2"/>
<path d="M183.538 30.2887L235 0.57735L286.462 30.2887V89.7113L235 119.423L183.538 89.7113V30.2887Z" stroke="#EBDAB2"/>
<path d="M123.538 127.289L175 97.5774L226.462 127.289V186.711L175 216.423L123.538 186.711V127.289Z" stroke="#EBDAB2"/>
<path d="M8.53848 127.289L60 97.5774L111.462 127.289V186.711L60 216.423L8.53848 186.711V127.289Z" stroke="#EBDAB2"/>
<path d="M66.5385 223.289L118 193.577L169.462 223.289V282.711L118 312.423L66.5385 282.711V223.289Z" stroke="#EBDAB2"/>
<path d="M62.5385 30.2887L114 0.57735L165.462 30.2887V89.7113L114 119.423L62.5385 89.7113V30.2887Z" stroke="#EBDAB2"/>
<path d="M308.538 30.2887L360 0.57735L411.462 30.2887V89.7113L360 119.423L308.538 89.7113V30.2887Z" stroke="#EBDAB2"/>
</svg>
