<?xml version="1.0" ?><svg id="Flat" viewBox="0 0 512 512" xmlns="http://www.w3.org/2000/svg"><title/><g><polygon fill="#2a75e6" points="416 96 416 80 328 32 312 32 312 8 200 8 200 32 184 32 96 80 96 96 24 96 24 336 488 336 488 96 416 96"/><rect fill="#f9d549" height="248" width="464" x="24" y="256"/><g><path d="M8,208H8l144,32,48.329-29.889A20,20,0,0,1,216,209.165L328,248l57.372,129.088a20,20,0,0,1-6.651,24.4L280,472,96,368,8,344H8Z" fill="#ffd4cf"/><rect fill="#ffe5e2" height="72.241" rx="20" transform="translate(261.573 -72.047) rotate(30)" width="47.831" x="241.313" y="415.958"/><rect fill="#ffe5e2" height="72.241" rx="20" transform="translate(243.794 -55.375) rotate(30)" width="47.831" x="201.313" y="391.118"/><rect fill="#ffe5e2" height="72.241" rx="20" transform="translate(226.435 -38.59) rotate(30)" width="47.831" x="161.313" y="367.118"/><rect fill="#ffe5e2" height="72.241" rx="20" transform="translate(209.076 -21.806) rotate(30)" width="47.831" x="121.313" y="343.118"/><path d="M504,208h0L392,232l-39.744-27.364a20,20,0,0,0-18.55-3.792L264,216,160,296l.577.721a60,60,0,0,0,75.583,15.192L280,288l15.672,18.807A40,40,0,0,0,350.4,313.2L352,312l32,64,120-32h0Z" fill="#ffe5e2"/></g></g><rect fill="#ffe5e2" height="72.241" rx="20" transform="translate(261.573 -72.047) rotate(30)" width="47.831" x="241.313" y="415.958"/><rect fill="#ffe5e2" height="72.241" rx="20" transform="translate(243.794 -55.375) rotate(30)" width="47.831" x="201.313" y="391.118"/><rect fill="#ffe5e2" height="72.241" rx="20" transform="translate(226.435 -38.59) rotate(30)" width="47.831" x="161.313" y="367.118"/><rect fill="#ffe5e2" height="72.241" rx="20" transform="translate(209.076 -21.806) rotate(30)" width="47.831" x="121.313" y="343.118"/><g><rect fill="#2568cc" height="16" width="16" x="120" y="96"/><rect fill="#2568cc" height="16" width="16" x="120" y="136"/><rect fill="#2568cc" height="104" width="16" x="80" y="96"/><rect fill="#2568cc" height="16" width="16" x="152" y="136"/><rect fill="#2568cc" height="16" width="16" x="152" y="96"/></g><g><rect fill="#2568cc" height="16" width="16" x="376" y="96"/><rect fill="#2568cc" height="16" width="16" x="376" y="136"/><rect fill="#2568cc" height="104" width="16" x="416" y="96"/><rect fill="#2568cc" height="16" width="16" x="344" y="136"/><rect fill="#2568cc" height="16" width="16" x="344" y="96"/></g><g><rect fill="#2568cc" height="152" width="16" x="184" y="32"/><rect fill="#2568cc" height="152" width="16" x="312" y="32"/><rect fill="#2568cc" height="16" width="64" x="224" y="40"/><rect fill="#2568cc" height="16" width="64" x="224" y="80"/><rect fill="#2568cc" height="16" width="64" x="224" y="120"/></g><g><rect fill="#2568cc" height="16" width="24" x="448" y="120"/><rect fill="#2568cc" height="16" width="24" x="448" y="152"/></g><g><rect fill="#2568cc" height="16" width="24" x="40" y="120"/><rect fill="#2568cc" height="16" width="24" x="40" y="152"/></g><g><rect fill="#e6c443" height="112" width="16" x="80" y="392"/><rect fill="#e6c443" height="16" width="24" x="40" y="400"/><rect fill="#e6c443" height="16" width="24" x="40" y="432"/><rect fill="#e6c443" height="16" width="24" x="40" y="464"/><rect fill="#e6c443" height="16" width="16" x="120" y="464"/></g><g><rect fill="#e6c443" height="112" width="16" x="416" y="392"/><rect fill="#e6c443" height="16" width="24" x="448" y="400"/><rect fill="#e6c443" height="16" width="24" x="448" y="432"/><rect fill="#e6c443" height="16" width="24" x="448" y="464"/><rect fill="#e6c443" height="16" width="16" x="376" y="464"/></g></svg>