<svg width="43" height="43" viewBox="0 0 43 43" fill="none" xmlns="http://www.w3.org/2000/svg">
<g clip-path="url(#clip0_86_436)">
<path d="M38.3021 10.933L22.1771 1.52677C21.9716 1.40688 21.7379 1.3437 21.5 1.3437C21.2621 1.3437 21.0284 1.40688 20.8229 1.52677L4.69788 10.933C4.49502 11.0514 4.32672 11.2208 4.20975 11.4245C4.09279 11.6281 4.03124 11.8589 4.03125 12.0938V30.9063C4.03124 31.1411 4.09279 31.3719 4.20975 31.5755C4.32672 31.7792 4.49502 31.9486 4.69788 32.067L20.8229 41.4732C21.0284 41.5931 21.2621 41.6563 21.5 41.6563C21.7379 41.6563 21.9716 41.5931 22.1771 41.4732L38.3021 32.067C38.505 31.9486 38.6733 31.7792 38.7902 31.5755C38.9072 31.3719 38.9688 31.1411 38.9688 30.9063V12.0938C38.9688 11.8589 38.9072 11.6281 38.7902 11.4245C38.6733 11.2208 38.505 11.0514 38.3021 10.933ZM21.5 4.24316L34.9585 12.0938L21.5 19.9443L8.04154 12.0938L21.5 4.24316ZM6.71875 14.4335L20.1562 22.2716V37.9728L6.71875 30.1347V14.4335ZM22.8438 37.9728V22.2716L36.2812 14.4335V30.1347L22.8438 37.9728Z" fill="#EBDAB2"/>
</g>
<defs>
<clipPath id="clip0_86_436">
<rect width="43" height="43" fill="white"/>
</clipPath>
</defs>
</svg>
