<svg width="60" height="60" viewBox="0 0 60 60" fill="none" xmlns="http://www.w3.org/2000/svg">
<g id="6060627_coronavirus_covid19_drugstore_health_healthcare_icon 1">
<g id="cor">
<g id="Group">
<path id="Vector" d="M36 35.4H24C23.6682 35.4 23.4 35.6688 23.4 36V53.4H24.6V36.6H29.4V45.9H28.5C28.1682 45.9 27.9 46.1688 27.9 46.5C27.9 46.8312 28.1682 47.1 28.5 47.1H29.4V53.4H30.6V47.1H31.5C31.8318 47.1 32.1 46.8312 32.1 46.5C32.1 46.1688 31.8318 45.9 31.5 45.9H30.6V36.6H35.4V53.4H36.6V36C36.6 35.6688 36.3318 35.4 36 35.4Z" fill="#0099AA"/>
<g id="Group_2">
<path id="Vector_2" d="M17.148 15.168C16.9134 15.402 16.908 15.78 17.1414 16.02C17.2614 16.14 17.4114 16.2 17.568 16.2C17.724 16.2 17.874 16.14 17.9874 16.026C18.2274 15.792 18.2334 15.414 18 15.18C17.7654 14.94 17.3874 14.94 17.148 15.168Z" fill="#666666"/>
<path id="Vector_3" d="M19.722 12.648C19.4874 12.882 19.482 13.26 19.7094 13.5C19.8294 13.62 19.9854 13.68 20.1414 13.68C20.2914 13.68 20.4414 13.62 20.5614 13.506C20.796 13.278 20.8014 12.894 20.568 12.66C20.3394 12.42 19.956 12.42 19.722 12.648Z" fill="#666666"/>
<path id="Vector_4" d="M22.7154 11.16C22.8654 11.16 23.0154 11.1 23.1294 10.986C23.3694 10.758 23.3754 10.374 23.1414 10.14C22.9134 9.89999 22.5294 9.89999 22.296 10.134C22.056 10.362 22.05 10.74 22.2834 10.98C22.404 11.1 22.56 11.16 22.7154 11.16Z" fill="#666666"/>
<path id="Vector_5" d="M21.426 12.42C21.582 12.42 21.732 12.36 21.846 12.246C22.0854 12.018 22.0854 11.634 21.858 11.4C21.624 11.16 21.246 11.16 21.006 11.394C20.772 11.622 20.766 12 21 12.24C21.1134 12.36 21.27 12.42 21.426 12.42Z" fill="#666666"/>
<path id="Vector_6" d="M18.858 14.94C19.008 14.94 19.158 14.88 19.278 14.766C19.512 14.538 19.518 14.154 19.284 13.92C19.056 13.68 18.672 13.68 18.438 13.908C18.1986 14.142 18.1986 14.52 18.426 14.76C18.546 14.88 18.702 14.94 18.858 14.94Z" fill="#666666"/>
<path id="Vector_7" d="M12.006 20.208C11.772 20.442 11.766 20.82 12 21.06C12.1134 21.18 12.27 21.24 12.426 21.24C12.582 21.24 12.732 21.18 12.846 21.066C13.0854 20.832 13.0854 20.454 12.858 20.22C12.624 19.98 12.246 19.974 12.006 20.208Z" fill="#666666"/>
<path id="Vector_8" d="M14.136 19.806C14.3706 19.572 14.376 19.194 14.142 18.96C13.908 18.72 13.53 18.714 13.29 18.948C13.056 19.182 13.0506 19.56 13.284 19.8C13.404 19.92 13.56 19.98 13.71 19.98C13.8654 19.98 14.0154 19.92 14.136 19.806Z" fill="#666666"/>
<path id="Vector_9" d="M10.722 21.468C10.4874 21.702 10.482 22.08 10.7094 22.314C10.8294 22.434 10.9854 22.494 11.1414 22.494C11.2914 22.494 11.4414 22.44 11.5614 22.326C11.796 22.092 11.8014 21.714 11.568 21.474C11.3394 21.24 10.962 21.234 10.722 21.468Z" fill="#666666"/>
<path id="Vector_10" d="M15.858 17.28C15.972 17.4 16.128 17.46 16.284 17.46C16.434 17.46 16.59 17.4 16.704 17.286C16.938 17.052 16.944 16.674 16.71 16.44C16.482 16.2 16.104 16.2 15.864 16.428C15.63 16.662 15.624 17.04 15.858 17.28Z" fill="#666666"/>
<path id="Vector_11" d="M14.58 17.688C14.34 17.922 14.34 18.3 14.568 18.54C14.6874 18.654 14.844 18.72 15 18.72C15.15 18.72 15.3 18.66 15.42 18.546C15.654 18.312 15.6594 17.934 15.426 17.7C15.198 17.46 14.8134 17.454 14.58 17.688Z" fill="#666666"/>
<path id="Vector_12" d="M19.704 17.286C19.944 17.052 19.944 16.674 19.71 16.44C19.482 16.2 19.104 16.2 18.864 16.428C18.63 16.662 18.6246 17.04 18.858 17.28C18.972 17.4 19.128 17.46 19.284 17.46C19.434 17.46 19.5894 17.4 19.704 17.286Z" fill="#666666"/>
<path id="Vector_13" d="M21.858 14.94C22.008 14.94 22.158 14.88 22.278 14.766C22.512 14.538 22.518 14.154 22.284 13.92C22.05 13.68 21.672 13.68 21.438 13.908C21.1986 14.142 21.1986 14.52 21.426 14.76C21.546 14.88 21.702 14.94 21.858 14.94Z" fill="#666666"/>
<path id="Vector_14" d="M20.568 16.2C20.724 16.2 20.874 16.14 20.9874 16.026C21.2274 15.798 21.2334 15.414 21 15.18C20.7654 14.94 20.3874 14.94 20.154 15.168C19.914 15.402 19.908 15.78 20.1414 16.02C20.262 16.14 20.418 16.2 20.568 16.2Z" fill="#666666"/>
<path id="Vector_15" d="M24.426 12.42C24.582 12.42 24.732 12.36 24.846 12.246C25.0854 12.018 25.0854 11.634 24.858 11.4C24.624 11.16 24.246 11.16 24.006 11.388C23.772 11.622 23.766 12 24 12.24C24.12 12.36 24.27 12.42 24.426 12.42Z" fill="#666666"/>
<path id="Vector_16" d="M25.7154 11.16C25.8654 11.16 26.0154 11.1 26.1354 10.986C26.37 10.758 26.3754 10.374 26.1414 10.14C25.9074 9.89999 25.5294 9.89999 25.296 10.128C25.056 10.362 25.056 10.74 25.2834 10.98C25.404 11.1 25.56 11.16 25.7154 11.16Z" fill="#666666"/>
<path id="Vector_17" d="M15.006 20.208C14.772 20.442 14.766 20.82 15 21.06C15.1134 21.174 15.27 21.24 15.426 21.24C15.582 21.24 15.732 21.18 15.846 21.066C16.0854 20.832 16.0854 20.454 15.858 20.22C15.624 19.98 15.246 19.974 15.006 20.208Z" fill="#666666"/>
<path id="Vector_18" d="M22.722 12.648C22.4874 12.882 22.482 13.26 22.7094 13.5C22.8294 13.62 22.9854 13.68 23.1414 13.68C23.2914 13.68 23.4414 13.62 23.5614 13.506C23.796 13.278 23.8014 12.894 23.568 12.66C23.3394 12.42 22.956 12.42 22.722 12.648Z" fill="#666666"/>
<path id="Vector_19" d="M13.722 21.468C13.4874 21.702 13.482 22.08 13.7154 22.32C13.8294 22.434 13.9854 22.494 14.1414 22.494C14.2914 22.494 14.4414 22.44 14.5614 22.326C14.796 22.092 14.8014 21.714 14.568 21.474C14.3394 21.24 13.962 21.234 13.722 21.468Z" fill="#666666"/>
<path id="Vector_20" d="M17.13 19.806C17.37 19.572 17.376 19.194 17.142 18.96C16.908 18.72 16.53 18.714 16.2966 18.948C16.0566 19.182 16.0566 19.56 16.284 19.8C16.404 19.92 16.56 19.974 16.71 19.974C16.8654 19.974 17.0154 19.92 17.13 19.806Z" fill="#666666"/>
<path id="Vector_21" d="M17.58 17.688C17.34 17.922 17.34 18.3 17.568 18.54C17.6874 18.66 17.844 18.72 18 18.72C18.15 18.72 18.3 18.66 18.42 18.546C18.654 18.312 18.6594 17.934 18.426 17.7C18.198 17.46 17.8134 17.454 17.58 17.688Z" fill="#666666"/>
<path id="Vector_22" d="M20.1414 18.96C19.9074 18.72 19.5294 18.714 19.2894 18.948C19.0554 19.182 19.05 19.56 19.2834 19.8C19.4034 19.92 19.5594 19.98 19.7094 19.98C19.8654 19.98 20.0154 19.92 20.1294 19.806C20.37 19.572 20.376 19.194 20.1414 18.96Z" fill="#666666"/>
<path id="Vector_23" d="M24.4374 13.908C24.198 14.142 24.198 14.52 24.4254 14.76C24.5454 14.88 24.7014 14.94 24.8574 14.94C25.0074 14.94 25.1574 14.88 25.2774 14.766C25.5114 14.538 25.5174 14.154 25.2834 13.92C25.05 13.68 24.672 13.68 24.4374 13.908Z" fill="#666666"/>
<path id="Vector_24" d="M23.154 15.168C22.914 15.402 22.908 15.78 23.1414 16.02C23.2614 16.14 23.4114 16.2 23.568 16.2C23.724 16.2 23.874 16.14 23.9874 16.026C24.2274 15.792 24.2334 15.414 24 15.18C23.7654 14.94 23.3874 14.94 23.154 15.168Z" fill="#666666"/>
<path id="Vector_25" d="M22.71 16.44C22.482 16.2 22.104 16.2 21.864 16.428C21.63 16.662 21.6246 17.04 21.858 17.28C21.972 17.4 22.128 17.46 22.284 17.46C22.434 17.46 22.59 17.4 22.704 17.286C22.944 17.052 22.944 16.674 22.71 16.44Z" fill="#666666"/>
<path id="Vector_26" d="M21.426 17.7C21.198 17.46 20.8134 17.46 20.58 17.688C20.34 17.922 20.34 18.3 20.568 18.54C20.6874 18.66 20.844 18.72 21 18.72C21.15 18.72 21.3 18.66 21.42 18.546C21.654 18.312 21.66 17.934 21.426 17.7Z" fill="#666666"/>
<path id="Vector_27" d="M28.7154 11.16C28.8654 11.16 29.0154 11.1 29.1354 10.986C29.37 10.758 29.3754 10.374 29.1414 10.14C28.9074 9.90598 28.5294 9.89998 28.296 10.128C28.056 10.362 28.056 10.74 28.2834 10.98C28.404 11.1 28.56 11.16 28.7154 11.16Z" fill="#666666"/>
<path id="Vector_28" d="M18.006 20.208C17.772 20.442 17.766 20.82 18 21.06C18.1134 21.174 18.27 21.234 18.426 21.234C18.576 21.234 18.732 21.18 18.846 21.066C19.0854 20.832 19.0854 20.454 18.858 20.214C18.624 19.98 18.246 19.974 18.006 20.208Z" fill="#666666"/>
<path id="Vector_29" d="M25.722 12.648C25.4874 12.882 25.482 13.26 25.7154 13.5C25.8294 13.62 25.9854 13.68 26.1414 13.68C26.2914 13.68 26.4414 13.62 26.5614 13.506C26.796 13.278 26.8014 12.894 26.568 12.66C26.3394 12.42 25.962 12.42 25.722 12.648Z" fill="#666666"/>
<path id="Vector_30" d="M16.722 21.468C16.4874 21.702 16.482 22.08 16.7154 22.314C16.8294 22.434 16.9854 22.494 17.1414 22.494C17.2914 22.494 17.4414 22.44 17.5614 22.326C17.796 22.092 17.8014 21.714 17.568 21.474C17.3394 21.24 16.956 21.234 16.722 21.468Z" fill="#666666"/>
<path id="Vector_31" d="M27.426 12.42C27.582 12.42 27.732 12.36 27.846 12.246C28.0854 12.018 28.0854 11.634 27.858 11.4C27.624 11.16 27.246 11.16 27.006 11.388C26.772 11.622 26.766 12 27 12.24C27.1134 12.36 27.27 12.42 27.426 12.42Z" fill="#666666"/>
<path id="Vector_32" d="M23.796 17.478C23.556 17.712 23.55 18.09 23.7834 18.33C23.9034 18.45 24.0594 18.51 24.2154 18.51C24.3654 18.51 24.5154 18.45 24.6354 18.336C24.87 18.102 24.8754 17.724 24.6414 17.49C24.408 17.25 24.03 17.244 23.796 17.478Z" fill="#666666"/>
<path id="Vector_33" d="M21.222 19.998C20.9874 20.232 20.982 20.61 21.2094 20.844C21.3294 20.964 21.4854 21.024 21.6414 21.024C21.7914 21.024 21.9414 20.97 22.0614 20.856C22.296 20.622 22.3014 20.244 22.068 20.004C21.8394 19.77 21.456 19.764 21.222 19.998Z" fill="#666666"/>
<path id="Vector_34" d="M23.346 19.596C23.5854 19.362 23.5854 18.984 23.358 18.744C23.124 18.51 22.746 18.504 22.506 18.738C22.272 18.972 22.266 19.35 22.5 19.584C22.6134 19.704 22.77 19.764 22.926 19.764C23.082 19.764 23.232 19.71 23.346 19.596Z" fill="#666666"/>
<path id="Vector_35" d="M19.9374 21.258C19.698 21.492 19.698 21.87 19.9254 22.104C20.0454 22.224 20.2014 22.284 20.3574 22.284C20.5074 22.284 20.6574 22.23 20.7774 22.116C21.0114 21.882 21.0174 21.504 20.7834 21.264C20.55 21.03 20.172 21.024 19.9374 21.258Z" fill="#666666"/>
<path id="Vector_36" d="M31.7154 11.16C31.8654 11.16 32.0154 11.1 32.1354 10.986C32.37 10.758 32.3754 10.374 32.1414 10.14C31.9074 9.90598 31.5294 9.89998 31.296 10.128C31.056 10.362 31.05 10.746 31.2834 10.98C31.404 11.1 31.56 11.16 31.7154 11.16Z" fill="#666666"/>
<path id="Vector_37" d="M30.426 12.42C30.582 12.42 30.732 12.36 30.846 12.246C31.0854 12.018 31.0854 11.634 30.858 11.4C30.624 11.16 30.246 11.16 30.006 11.388C29.772 11.622 29.766 12 30 12.24C30.1134 12.36 30.27 12.42 30.426 12.42Z" fill="#666666"/>
<path id="Vector_38" d="M25.836 19.86C25.986 19.86 26.136 19.8 26.25 19.686C26.4894 19.458 26.4894 19.074 26.262 18.84C26.028 18.606 25.65 18.6 25.41 18.834C25.176 19.062 25.1706 19.446 25.404 19.68C25.524 19.8 25.68 19.86 25.836 19.86Z" fill="#666666"/>
<path id="Vector_39" d="M24.126 20.094C23.8914 20.322 23.886 20.706 24.12 20.94C24.2334 21.06 24.3894 21.12 24.546 21.12C24.696 21.12 24.852 21.06 24.9654 20.946C25.2054 20.718 25.2054 20.334 24.978 20.1C24.744 19.86 24.3654 19.86 24.126 20.094Z" fill="#666666"/>
<path id="Vector_40" d="M22.8414 21.354C22.602 21.582 22.602 21.96 22.83 22.2C22.95 22.32 23.106 22.38 23.262 22.38C23.412 22.38 23.562 22.32 23.682 22.206C23.916 21.978 23.922 21.594 23.688 21.36C23.46 21.12 23.076 21.12 22.8414 21.354Z" fill="#666666"/>
<path id="Vector_41" d="M31.722 12.648C31.4874 12.882 31.482 13.26 31.7154 13.5C31.8294 13.62 31.9854 13.68 32.1414 13.68C32.2914 13.68 32.4414 13.62 32.5614 13.506C32.796 13.278 32.8014 12.894 32.568 12.66C32.3394 12.42 31.956 12.42 31.722 12.648Z" fill="#666666"/>
<path id="Vector_42" d="M33.426 12.42C33.582 12.42 33.732 12.36 33.846 12.246C34.0854 12.018 34.0854 11.634 33.858 11.4C33.624 11.16 33.246 11.16 33.006 11.394C32.772 11.622 32.766 12 33 12.24C33.1134 12.36 33.27 12.42 33.426 12.42Z" fill="#666666"/>
<path id="Vector_43" d="M34.7154 11.16C34.8654 11.16 35.0154 11.1 35.1354 10.986C35.37 10.758 35.3754 10.374 35.1414 10.14C34.9074 9.89999 34.5294 9.89999 34.296 10.134C34.056 10.362 34.056 10.746 34.2834 10.98C34.404 11.1 34.56 11.16 34.7154 11.16Z" fill="#666666"/>
<path id="Vector_44" d="M26.796 20.418C26.556 20.652 26.55 21.03 26.7834 21.264C26.9034 21.384 27.0594 21.444 27.2154 21.444C27.3654 21.444 27.5154 21.39 27.6354 21.276C27.87 21.042 27.8754 20.664 27.6414 20.424C27.408 20.19 27.03 20.184 26.796 20.418Z" fill="#666666"/>
<path id="Vector_45" d="M25.506 21.678C25.272 21.912 25.266 22.29 25.5 22.524C25.62 22.644 25.77 22.704 25.926 22.704C26.082 22.704 26.232 22.65 26.346 22.536C26.5854 22.302 26.5854 21.924 26.358 21.684C26.124 21.45 25.746 21.444 25.506 21.678Z" fill="#666666"/>
<path id="Vector_46" d="M34.284 13.92C34.05 13.68 33.672 13.68 33.438 13.908C33.1986 14.142 33.1986 14.52 33.426 14.76C33.546 14.88 33.702 14.94 33.858 14.94C34.008 14.94 34.158 14.88 34.278 14.766C34.512 14.538 34.518 14.154 34.284 13.92Z" fill="#666666"/>
<path id="Vector_47" d="M37.7154 11.16C37.8654 11.16 38.0154 11.1 38.1354 10.986C38.37 10.758 38.3754 10.374 38.1414 10.14C37.9074 9.90598 37.5294 9.89998 37.296 10.128C37.056 10.362 37.056 10.74 37.2834 10.98C37.404 11.1 37.56 11.16 37.7154 11.16Z" fill="#666666"/>
<path id="Vector_48" d="M36.426 12.42C36.582 12.42 36.732 12.36 36.846 12.246C37.0854 12.018 37.0854 11.634 36.858 11.4C36.624 11.16 36.246 11.16 36.006 11.394C35.772 11.622 35.766 12 36 12.24C36.1134 12.36 36.27 12.42 36.426 12.42Z" fill="#666666"/>
<path id="Vector_49" d="M34.722 12.648C34.4874 12.882 34.482 13.26 34.7094 13.5C34.8294 13.62 34.9854 13.68 35.1414 13.68C35.2914 13.68 35.4414 13.62 35.5614 13.506C35.796 13.278 35.8014 12.894 35.568 12.66C35.3394 12.42 34.962 12.42 34.722 12.648Z" fill="#666666"/>
<path id="Vector_50" d="M28.35 21.834C28.1154 22.062 28.11 22.44 28.344 22.68C28.4574 22.8 28.6134 22.86 28.77 22.86C28.92 22.86 29.076 22.8 29.1894 22.686C29.4294 22.458 29.4294 22.074 29.202 21.84C28.968 21.6 28.5894 21.6 28.35 21.834Z" fill="#666666"/>
<path id="Vector_51" d="M36.4374 13.908C36.198 14.142 36.198 14.52 36.4254 14.76C36.5454 14.88 36.7014 14.94 36.8574 14.94C37.0074 14.94 37.1574 14.88 37.2774 14.766C37.5114 14.538 37.5174 14.154 37.2834 13.92C37.05 13.68 36.672 13.68 36.4374 13.908Z" fill="#666666"/>
<path id="Vector_52" d="M35.148 15.168C34.9134 15.402 34.908 15.78 35.1414 16.02C35.2614 16.14 35.418 16.2 35.574 16.2C35.724 16.2 35.874 16.14 35.9874 16.026C36.2274 15.798 36.2334 15.414 36 15.18C35.7654 14.94 35.3874 14.94 35.148 15.168Z" fill="#666666"/>
<path id="Vector_53" d="M39.426 12.42C39.582 12.42 39.732 12.36 39.846 12.246C40.0854 12.018 40.0854 11.634 39.858 11.4C39.624 11.16 39.246 11.16 39.006 11.394C38.772 11.622 38.766 12 39 12.24C39.1134 12.36 39.27 12.42 39.426 12.42Z" fill="#666666"/>
<path id="Vector_54" d="M40.7154 11.16C40.8654 11.16 41.0154 11.1 41.1354 10.986C41.37 10.758 41.3754 10.374 41.1414 10.14C40.9074 9.89999 40.5294 9.89999 40.2894 10.134C40.0554 10.362 40.05 10.74 40.2834 10.98C40.404 11.1 40.56 11.16 40.7154 11.16Z" fill="#666666"/>
<path id="Vector_55" d="M37.722 12.648C37.482 12.882 37.482 13.26 37.7154 13.5C37.8294 13.62 37.9854 13.68 38.1414 13.68C38.2914 13.68 38.4414 13.62 38.5614 13.506C38.796 13.278 38.8014 12.894 38.568 12.66C38.3394 12.42 37.962 12.42 37.722 12.648Z" fill="#666666"/>
<path id="Vector_56" d="M38.154 15.168C37.914 15.402 37.908 15.78 38.1414 16.02C38.2614 16.14 38.4114 16.2 38.568 16.2C38.724 16.2 38.874 16.14 38.9874 16.026C39.2274 15.792 39.2334 15.414 39 15.18C38.7654 14.94 38.3874 14.94 38.154 15.168Z" fill="#666666"/>
<path id="Vector_57" d="M36.858 17.28C36.972 17.4 37.128 17.46 37.284 17.46C37.434 17.46 37.59 17.4 37.704 17.286C37.944 17.058 37.944 16.674 37.716 16.44C37.482 16.2 37.104 16.2 36.864 16.428C36.63 16.662 36.624 17.04 36.858 17.28Z" fill="#666666"/>
<path id="Vector_58" d="M33.426 21.24C33.582 21.24 33.732 21.18 33.846 21.066C34.0854 20.832 34.0854 20.454 33.858 20.214C33.624 19.98 33.246 19.974 33.006 20.208C32.772 20.442 32.766 20.82 33 21.06C33.1134 21.18 33.27 21.24 33.426 21.24Z" fill="#666666"/>
<path id="Vector_59" d="M39.858 14.94C40.008 14.94 40.158 14.88 40.278 14.766C40.512 14.538 40.518 14.154 40.284 13.92C40.056 13.68 39.672 13.68 39.438 13.908C39.1986 14.142 39.1986 14.52 39.426 14.76C39.546 14.88 39.702 14.94 39.858 14.94Z" fill="#666666"/>
<path id="Vector_60" d="M35.58 17.688C35.34 17.922 35.34 18.3 35.568 18.54C35.6874 18.66 35.844 18.72 36 18.72C36.15 18.72 36.3 18.66 36.42 18.546C36.654 18.312 36.6594 17.934 36.426 17.7C36.198 17.46 35.8134 17.46 35.58 17.688Z" fill="#666666"/>
<path id="Vector_61" d="M42.426 12.42C42.582 12.42 42.732 12.36 42.846 12.246C43.0854 12.018 43.0854 11.634 42.858 11.4C42.624 11.16 42.246 11.16 42.006 11.394C41.772 11.622 41.766 12 42 12.24C42.1134 12.36 42.27 12.42 42.426 12.42Z" fill="#666666"/>
<path id="Vector_62" d="M31.722 21.468C31.4874 21.702 31.482 22.08 31.7154 22.314C31.8294 22.434 31.9854 22.494 32.1414 22.494C32.2914 22.494 32.448 22.44 32.5614 22.326C32.796 22.092 32.8014 21.714 32.568 21.48C32.3394 21.24 31.962 21.234 31.722 21.468Z" fill="#666666"/>
<path id="Vector_63" d="M40.722 12.648C40.4874 12.882 40.482 13.26 40.7094 13.5C40.8294 13.62 40.9854 13.68 41.1414 13.68C41.2914 13.68 41.4414 13.62 41.5614 13.506C41.796 13.278 41.8014 12.894 41.568 12.66C41.3394 12.42 40.956 12.42 40.722 12.648Z" fill="#666666"/>
<path id="Vector_64" d="M43.7154 11.16C43.8654 11.16 44.0154 11.1 44.1354 10.986C44.37 10.758 44.3754 10.374 44.1414 10.14C43.9074 9.89999 43.5294 9.89999 43.296 10.128C43.056 10.362 43.05 10.74 43.2834 10.98C43.404 11.1 43.56 11.16 43.7154 11.16Z" fill="#666666"/>
<path id="Vector_65" d="M35.136 19.806C35.3706 19.572 35.376 19.194 35.142 18.96C34.908 18.72 34.53 18.714 34.2966 18.948C34.0566 19.182 34.0506 19.56 34.284 19.794C34.404 19.914 34.56 19.974 34.71 19.974C34.8654 19.974 35.0154 19.92 35.136 19.806Z" fill="#666666"/>
<path id="Vector_66" d="M42.4374 13.908C42.198 14.142 42.198 14.52 42.4254 14.76C42.5454 14.88 42.7014 14.94 42.8574 14.94C43.0074 14.94 43.1574 14.88 43.2774 14.766C43.5114 14.538 43.5174 14.154 43.2834 13.92C43.056 13.68 42.672 13.68 42.4374 13.908Z" fill="#666666"/>
<path id="Vector_67" d="M34.722 21.468C34.4874 21.702 34.482 22.08 34.7094 22.314C34.8294 22.434 34.9854 22.494 35.1414 22.494C35.2914 22.494 35.4414 22.44 35.5614 22.326C35.796 22.092 35.8014 21.714 35.568 21.474C35.3394 21.24 34.956 21.234 34.722 21.468Z" fill="#666666"/>
<path id="Vector_68" d="M45.426 12.42C45.582 12.42 45.732 12.36 45.846 12.246C46.0854 12.018 46.0854 11.634 45.858 11.4C45.624 11.16 45.246 11.16 45.006 11.388C44.772 11.622 44.766 12 45 12.24C45.1134 12.36 45.27 12.42 45.426 12.42Z" fill="#666666"/>
<path id="Vector_69" d="M36.006 20.208C35.772 20.442 35.766 20.82 36 21.06C36.1134 21.18 36.27 21.24 36.426 21.24C36.576 21.24 36.732 21.18 36.846 21.066C37.0854 20.832 37.0854 20.454 36.858 20.22C36.624 19.98 36.246 19.974 36.006 20.208Z" fill="#666666"/>
<path id="Vector_70" d="M46.7154 11.16C46.8654 11.16 47.0154 11.1 47.1354 10.986C47.37 10.758 47.3754 10.374 47.1414 10.14C46.9074 9.89999 46.5294 9.89999 46.296 10.128C46.056 10.362 46.056 10.74 46.2834 10.98C46.404 11.1 46.56 11.16 46.7154 11.16Z" fill="#666666"/>
<path id="Vector_71" d="M40.704 17.286C40.938 17.052 40.944 16.674 40.71 16.44C40.482 16.2 40.104 16.2 39.864 16.428C39.63 16.662 39.6246 17.04 39.858 17.28C39.972 17.4 40.128 17.46 40.284 17.46C40.434 17.46 40.5894 17.4 40.704 17.286Z" fill="#666666"/>
<path id="Vector_72" d="M41.154 15.168C40.914 15.402 40.908 15.78 41.1414 16.02C41.2614 16.14 41.418 16.2 41.568 16.2C41.724 16.2 41.874 16.14 41.9874 16.026C42.2274 15.798 42.2334 15.414 42 15.18C41.7654 14.94 41.3874 14.94 41.154 15.168Z" fill="#666666"/>
<path id="Vector_73" d="M43.722 12.648C43.4874 12.882 43.482 13.26 43.7094 13.5C43.8294 13.62 43.9854 13.68 44.1414 13.68C44.2914 13.68 44.4414 13.62 44.5614 13.506C44.796 13.278 44.8014 12.894 44.568 12.66C44.3394 12.42 43.956 12.42 43.722 12.648Z" fill="#666666"/>
<path id="Vector_74" d="M38.58 17.688C38.34 17.922 38.34 18.3 38.568 18.54C38.6874 18.66 38.844 18.72 39 18.72C39.15 18.72 39.3 18.66 39.42 18.546C39.654 18.312 39.6594 17.934 39.426 17.7C39.198 17.46 38.8134 17.454 38.58 17.688Z" fill="#666666"/>
<path id="Vector_75" d="M38.13 19.806C38.37 19.572 38.376 19.194 38.142 18.96C37.908 18.72 37.53 18.714 37.29 18.948C37.056 19.182 37.0506 19.56 37.284 19.8C37.404 19.92 37.56 19.98 37.71 19.98C37.8654 19.98 38.0154 19.92 38.13 19.806Z" fill="#666666"/>
<path id="Vector_76" d="M49.428 11.172C49.578 11.172 49.734 11.112 49.848 10.998C50.0874 10.764 50.0874 10.38 49.848 10.146C49.6134 9.91199 49.2354 9.91199 49.002 10.146C48.768 10.38 48.768 10.764 49.002 10.998C49.1154 11.112 49.272 11.172 49.428 11.172Z" fill="#666666"/>
<path id="Vector_77" d="M45.186 13.968C44.952 14.202 44.952 14.58 45.186 14.814C45.3 14.934 45.456 14.988 45.612 14.988C45.762 14.988 45.9186 14.934 46.032 14.814C46.266 14.58 46.266 14.202 46.032 13.968C45.798 13.734 45.42 13.734 45.186 13.968Z" fill="#666666"/>
<path id="Vector_78" d="M38.82 20.328C38.5854 20.562 38.5854 20.946 38.82 21.18C38.9394 21.294 39.0894 21.354 39.246 21.354C39.396 21.354 39.552 21.294 39.6654 21.18C39.9 20.946 39.9 20.562 39.6654 20.328C39.432 20.094 39.054 20.094 38.82 20.328Z" fill="#666666"/>
<path id="Vector_79" d="M43.9134 15.24C43.674 15.474 43.674 15.852 43.9134 16.086C44.0274 16.206 44.1834 16.266 44.3334 16.266C44.4894 16.266 44.6394 16.206 44.7594 16.086C44.994 15.852 44.994 15.474 44.7594 15.24C44.526 15.006 44.148 15.006 43.9134 15.24Z" fill="#666666"/>
<path id="Vector_80" d="M37.548 21.606C37.3134 21.84 37.3134 22.218 37.548 22.452C37.6614 22.572 37.818 22.626 37.968 22.626C38.124 22.626 38.28 22.572 38.394 22.452C38.628 22.218 38.628 21.84 38.394 21.606C38.16 21.372 37.782 21.372 37.548 21.606Z" fill="#666666"/>
<path id="Vector_81" d="M42.636 16.512C42.402 16.746 42.402 17.124 42.636 17.364C42.756 17.478 42.912 17.538 43.062 17.538C43.2186 17.538 43.3686 17.478 43.488 17.364C43.7226 17.124 43.7226 16.746 43.488 16.512C43.254 16.278 42.87 16.278 42.636 16.512Z" fill="#666666"/>
<path id="Vector_82" d="M40.944 19.908C41.178 19.674 41.178 19.29 40.944 19.056C40.7094 18.822 40.326 18.822 40.0914 19.056C39.8574 19.29 39.8574 19.674 40.0914 19.908C40.2114 20.022 40.3614 20.082 40.518 20.082C40.668 20.082 40.824 20.022 40.944 19.908Z" fill="#666666"/>
<path id="Vector_83" d="M41.3634 17.784C41.1294 18.018 41.1294 18.402 41.3634 18.636C41.4834 18.75 41.6334 18.81 41.7894 18.81C41.946 18.81 42.096 18.75 42.2154 18.636C42.45 18.402 42.45 18.018 42.2154 17.784C41.982 17.55 41.598 17.55 41.3634 17.784Z" fill="#666666"/>
<path id="Vector_84" d="M48.156 12.444C48.306 12.444 48.462 12.39 48.576 12.27C48.81 12.036 48.81 11.652 48.576 11.418C48.3414 11.19 47.9634 11.19 47.73 11.418C47.496 11.652 47.496 12.036 47.73 12.27C47.844 12.39 48 12.444 48.156 12.444Z" fill="#666666"/>
<path id="Vector_85" d="M46.458 12.696C46.224 12.93 46.224 13.308 46.458 13.542C46.572 13.662 46.728 13.716 46.884 13.716C47.034 13.716 47.19 13.662 47.304 13.542C47.538 13.308 47.538 12.93 47.304 12.696C47.07 12.462 46.6914 12.462 46.458 12.696Z" fill="#666666"/>
<path id="Vector_86" d="M46.308 17.538C46.542 17.304 46.542 16.926 46.308 16.692C46.074 16.458 45.696 16.458 45.462 16.692C45.2226 16.926 45.2226 17.304 45.462 17.538C45.576 17.658 45.732 17.718 45.882 17.718C46.0374 17.718 46.1874 17.658 46.308 17.538Z" fill="#666666"/>
<path id="Vector_87" d="M45.036 18.816C45.2706 18.582 45.2706 18.198 45.036 17.964C44.802 17.73 44.4186 17.73 44.184 17.964C43.95 18.198 43.95 18.582 44.184 18.816C44.304 18.93 44.454 18.99 44.61 18.99C44.766 18.99 44.9154 18.93 45.036 18.816Z" fill="#666666"/>
<path id="Vector_88" d="M49.278 12.876C49.044 13.11 49.044 13.488 49.278 13.722C49.3914 13.836 49.548 13.896 49.698 13.896C49.854 13.896 50.01 13.836 50.124 13.722C50.358 13.488 50.358 13.11 50.124 12.876C49.8894 12.642 49.512 12.642 49.278 12.876Z" fill="#666666"/>
<path id="Vector_89" d="M43.7634 19.236C43.5294 19.002 43.146 19.002 42.9114 19.236C42.6774 19.47 42.6774 19.854 42.9114 20.088C43.0314 20.202 43.1814 20.262 43.3374 20.262C43.4874 20.262 43.644 20.202 43.7634 20.088C43.998 19.854 43.998 19.47 43.7634 19.236Z" fill="#666666"/>
<path id="Vector_90" d="M41.6394 20.508C41.4054 20.742 41.4054 21.126 41.6394 21.36C41.7594 21.474 41.9094 21.534 42.0654 21.534C42.2154 21.534 42.372 21.474 42.4914 21.36C42.72 21.126 42.72 20.742 42.4914 20.508C42.258 20.274 41.874 20.274 41.6394 20.508Z" fill="#666666"/>
<path id="Vector_91" d="M40.368 21.786C40.1334 22.02 40.1334 22.398 40.368 22.632C40.4874 22.752 40.6374 22.806 40.794 22.806C40.944 22.806 41.1 22.752 41.2134 22.632C41.448 22.398 41.448 22.02 41.2134 21.786C40.98 21.546 40.602 21.546 40.368 21.786Z" fill="#666666"/>
<path id="Vector_92" d="M48.006 14.148C47.772 14.382 47.772 14.76 48.006 14.994C48.12 15.114 48.276 15.168 48.432 15.168C48.582 15.168 48.738 15.114 48.852 14.994C49.086 14.76 49.086 14.382 48.852 14.148C48.618 13.914 48.2394 13.914 48.006 14.148Z" fill="#666666"/>
<path id="Vector_93" d="M46.734 15.42C46.5 15.654 46.5 16.032 46.734 16.266C46.848 16.386 47.004 16.446 47.154 16.446C47.31 16.446 47.46 16.386 47.58 16.266C47.814 16.032 47.814 15.654 47.58 15.42C47.346 15.186 46.968 15.186 46.734 15.42Z" fill="#666666"/>
<path id="Vector_94" d="M46.83 19.77C46.986 19.77 47.136 19.71 47.256 19.596C47.49 19.356 47.49 18.978 47.256 18.744C47.022 18.51 46.638 18.51 46.404 18.744C46.17 18.978 46.17 19.356 46.404 19.596C46.524 19.71 46.674 19.77 46.83 19.77Z" fill="#666666"/>
<path id="Vector_95" d="M47.682 18.318C47.796 18.438 47.952 18.498 48.102 18.498C48.258 18.498 48.414 18.438 48.528 18.318C48.762 18.084 48.762 17.706 48.528 17.472C48.294 17.238 47.9154 17.238 47.682 17.472C47.4414 17.706 47.4414 18.084 47.682 18.318Z" fill="#666666"/>
<path id="Vector_96" d="M48.954 17.046C49.068 17.166 49.224 17.22 49.374 17.22C49.53 17.22 49.686 17.166 49.8 17.046C50.034 16.812 50.034 16.434 49.8 16.2C49.5654 15.966 49.1874 15.966 48.954 16.2C48.72 16.434 48.72 16.812 48.954 17.046Z" fill="#666666"/>
<path id="Vector_97" d="M43.86 21.288C43.626 21.522 43.626 21.906 43.86 22.14C43.98 22.254 44.13 22.314 44.286 22.314C44.436 22.314 44.592 22.254 44.712 22.14C44.9466 21.906 44.9466 21.522 44.712 21.288C44.478 21.054 44.094 21.054 43.86 21.288Z" fill="#666666"/>
<path id="Vector_98" d="M45.132 20.016C44.898 20.25 44.898 20.634 45.132 20.868C45.252 20.982 45.408 21.042 45.558 21.042C45.714 21.042 45.864 20.982 45.984 20.868C46.2186 20.634 46.2186 20.25 45.984 20.016C45.75 19.782 45.3654 19.782 45.132 20.016Z" fill="#666666"/>
<path id="Vector_99" d="M48.654 20.346C48.42 20.112 48.036 20.112 47.802 20.346C47.568 20.58 47.568 20.958 47.802 21.192C47.922 21.312 48.078 21.372 48.228 21.372C48.384 21.372 48.534 21.312 48.654 21.192C48.8874 20.958 48.8874 20.58 48.654 20.346Z" fill="#666666"/>
<path id="Vector_100" d="M49.074 19.074C48.846 19.308 48.846 19.686 49.074 19.92C49.194 20.04 49.35 20.1 49.5 20.1C49.656 20.1 49.806 20.04 49.926 19.92C50.16 19.686 50.16 19.308 49.926 19.074C49.6914 18.84 49.3134 18.84 49.074 19.074Z" fill="#666666"/>
<path id="Vector_101" d="M46.53 21.618C46.296 21.852 46.296 22.236 46.53 22.47C46.65 22.584 46.8 22.644 46.956 22.644C47.112 22.644 47.262 22.584 47.382 22.47C47.616 22.236 47.616 21.852 47.382 21.618C47.148 21.384 46.7634 21.384 46.53 21.618Z" fill="#666666"/>
<path id="Vector_102" d="M49.002 22.146C48.768 22.386 48.768 22.764 49.002 22.998C49.1154 23.112 49.272 23.172 49.428 23.172C49.578 23.172 49.734 23.112 49.848 22.998C50.0874 22.764 50.0874 22.386 49.848 22.146C49.6134 21.912 49.236 21.912 49.002 22.146Z" fill="#666666"/>
<path id="Vector_103" d="M11.1 19.776C11.3394 19.548 11.346 19.164 11.112 18.93C10.884 18.69 10.5 18.684 10.266 18.918C10.0266 19.146 10.0206 19.53 10.254 19.764C10.374 19.884 10.53 19.944 10.686 19.944C10.836 19.944 10.986 19.89 11.1 19.776Z" fill="#666666"/>
<path id="Vector_104" d="M15.42 13.896C15.1854 14.124 15.18 14.502 15.4134 14.742C15.5274 14.862 15.6834 14.922 15.8394 14.922C15.9894 14.922 16.146 14.868 16.2594 14.754C16.4994 14.52 16.5054 14.142 16.272 13.902C16.0374 13.668 15.66 13.662 15.42 13.896Z" fill="#666666"/>
<path id="Vector_105" d="M14.136 15.15C13.8966 15.378 13.89 15.762 14.124 15.996C14.2374 16.116 14.394 16.182 14.55 16.182C14.7 16.182 14.856 16.122 14.97 16.008C15.2094 15.78 15.2094 15.396 14.982 15.162C14.748 14.922 14.37 14.916 14.136 15.15Z" fill="#666666"/>
<path id="Vector_106" d="M11.556 17.664C11.316 17.892 11.31 18.27 11.544 18.51C11.6574 18.63 11.8134 18.69 11.97 18.69C12.126 18.69 12.276 18.636 12.3894 18.522C12.6294 18.288 12.6354 17.91 12.402 17.67C12.168 17.436 11.7894 17.43 11.556 17.664Z" fill="#666666"/>
<path id="Vector_107" d="M12.834 17.256C12.948 17.376 13.104 17.436 13.26 17.436C13.416 17.436 13.566 17.376 13.68 17.262C13.92 17.034 13.926 16.656 13.692 16.416C13.464 16.176 13.08 16.176 12.8466 16.404C12.606 16.638 12.6 17.016 12.834 17.256Z" fill="#666666"/>
<path id="Vector_108" d="M16.71 12.636C16.476 12.87 16.4706 13.248 16.698 13.488C16.818 13.608 16.974 13.668 17.13 13.668C17.28 13.668 17.43 13.614 17.55 13.5C17.784 13.266 17.7894 12.888 17.562 12.648C17.328 12.414 16.95 12.408 16.71 12.636Z" fill="#666666"/>
<path id="Vector_109" d="M19.71 11.154C19.86 11.154 20.01 11.1 20.13 10.986C20.364 10.752 20.37 10.374 20.142 10.14C19.908 9.89999 19.53 9.89399 19.29 10.128C19.056 10.356 19.0506 10.74 19.278 10.974C19.398 11.094 19.554 11.154 19.71 11.154Z" fill="#666666"/>
<path id="Vector_110" d="M18.42 12.414C18.57 12.414 18.72 12.354 18.8394 12.24C19.074 12.012 19.0794 11.628 18.852 11.394C18.618 11.154 18.2394 11.148 18 11.382C17.7654 11.616 17.76 11.994 17.9874 12.228C18.108 12.348 18.2634 12.414 18.42 12.414Z" fill="#666666"/>
<path id="Vector_111" d="M11.112 15.12C10.8726 15.348 10.866 15.732 11.0946 15.966C11.214 16.092 11.3706 16.152 11.5266 16.152C11.6766 16.152 11.8266 16.098 11.94 15.984C12.18 15.75 12.186 15.372 11.958 15.132C11.73 14.898 11.346 14.892 11.112 15.12Z" fill="#666666"/>
<path id="Vector_112" d="M12.402 13.872C12.162 14.1 12.156 14.478 12.3894 14.718C12.5034 14.838 12.6654 14.904 12.822 14.904C12.972 14.904 13.122 14.844 13.2354 14.736C13.4754 14.502 13.4814 14.124 13.2534 13.884C13.02 13.644 12.6414 13.638 12.402 13.872Z" fill="#666666"/>
<path id="Vector_113" d="M10.65 17.232C10.884 17.004 10.8894 16.626 10.662 16.386C10.434 16.146 10.05 16.14 9.81598 16.374C9.57658 16.602 9.57058 16.98 9.79858 17.22C9.91858 17.34 10.0746 17.4 10.2306 17.4C10.38 17.4 10.53 17.346 10.65 17.232Z" fill="#666666"/>
<path id="Vector_114" d="M16.704 11.148C16.854 11.148 17.004 11.094 17.124 10.98C17.358 10.752 17.3634 10.374 17.136 10.134C16.908 9.89399 16.524 9.88799 16.29 10.116C16.0506 10.35 16.0446 10.728 16.2726 10.968C16.3914 11.088 16.548 11.148 16.704 11.148Z" fill="#666666"/>
<path id="Vector_115" d="M13.698 12.618C13.458 12.852 13.452 13.23 13.6854 13.47C13.7994 13.59 13.9554 13.65 14.1114 13.65C14.268 13.65 14.418 13.596 14.5314 13.482C14.7714 13.254 14.7774 12.87 14.544 12.636C14.3154 12.396 13.9374 12.39 13.698 12.618Z" fill="#666666"/>
<path id="Vector_116" d="M15.408 12.402C15.558 12.402 15.708 12.342 15.828 12.234C16.068 12 16.074 11.622 15.84 11.382C15.612 11.148 15.234 11.142 14.9946 11.37C14.7546 11.598 14.7486 11.982 14.9766 12.216C15.096 12.342 15.252 12.402 15.408 12.402Z" fill="#666666"/>
<path id="Vector_117" d="M12.3894 12.378C12.5394 12.378 12.6894 12.324 12.8034 12.216C13.0434 11.988 13.0554 11.604 12.8214 11.364C12.5934 11.124 12.2148 11.118 11.9754 11.346C11.7354 11.574 11.7294 11.952 11.9574 12.192C12.072 12.318 12.234 12.378 12.3894 12.378Z" fill="#666666"/>
<path id="Vector_118" d="M10.674 12.582C10.434 12.81 10.422 13.194 10.65 13.434C10.77 13.554 10.926 13.62 11.0874 13.62C11.2314 13.62 11.3814 13.566 11.496 13.452C11.7354 13.224 11.748 12.846 11.52 12.606C11.2914 12.366 10.9134 12.354 10.674 12.582Z" fill="#666666"/>
<path id="Vector_119" d="M13.698 11.142C13.8414 11.142 13.9914 11.088 14.106 10.974C14.346 10.746 14.358 10.368 14.13 10.128C13.902 9.88801 13.524 9.87601 13.284 10.104C13.038 10.332 13.032 10.71 13.26 10.95C13.38 11.076 13.536 11.142 13.698 11.142Z" fill="#666666"/>
<path id="Vector_120" d="M10.662 11.106C10.806 11.106 10.95 11.052 11.064 10.95C11.31 10.728 11.328 10.35 11.106 10.104C10.884 9.85798 10.506 9.83398 10.26 10.056C10.014 10.278 9.9966 10.656 10.2186 10.902C10.332 11.034 10.5 11.106 10.662 11.106Z" fill="#666666"/>
<path id="Vector_121" d="M57.6 30V27C57.6 26.6688 57.3318 26.4 57 26.4H51.6V8.99999V5.99999C51.6 5.66879 51.3318 5.39999 51 5.39999H8.99999C8.66819 5.39999 8.39999 5.66879 8.39999 5.99999V8.99999V26.4H2.99999C2.66819 26.4 2.39999 26.6688 2.39999 27V30C2.39999 31.7802 3.70019 33.2586 5.39999 33.546V53.4H2.99999C2.66819 53.4 2.39999 53.6688 2.39999 54C2.39999 54.3312 2.66819 54.6 2.99999 54.6H57C57.3318 54.6 57.6 54.3312 57.6 54C57.6 53.6688 57.3318 53.4 57 53.4H54.6V33.546C56.2998 33.2586 57.6 31.7802 57.6 30ZM9.59999 6.59999H50.4V8.39999H9.59999V6.59999ZM11.4954 9.59999C11.5152 9.63419 11.5284 9.67139 11.556 9.70199C11.67 9.83399 11.838 9.89999 12 9.89999C12.144 9.89999 12.2874 9.85199 12.402 9.74399C12.4482 9.70199 12.4782 9.65099 12.5088 9.59999H14.4906C14.5134 9.63839 14.5296 9.67979 14.562 9.71399C14.682 9.83999 14.838 9.89999 15 9.89999C15.15 9.89999 15.3 9.84599 15.4134 9.73199C15.4536 9.69359 15.4782 9.64559 15.5058 9.59999H17.4924C17.5158 9.64079 17.5338 9.68399 17.568 9.71999C17.6874 9.83999 17.844 9.89999 18 9.89999C18.15 9.89999 18.3 9.84599 18.4134 9.73199C18.4536 9.69359 18.4776 9.64559 18.5052 9.59999H20.4924C20.5158 9.64079 20.5338 9.68399 20.568 9.71999C20.6874 9.83999 20.844 9.89999 21 9.89999C21.15 9.89999 21.3 9.84599 21.42 9.73199C21.4584 9.69299 21.4824 9.64559 21.5082 9.59999H23.4912C23.5146 9.64079 23.5332 9.68459 23.568 9.71999C23.6874 9.83999 23.844 9.89999 24 9.89999C24.15 9.89999 24.3 9.83999 24.42 9.72599C24.4578 9.68879 24.48 9.64379 24.5058 9.59999H26.4954C26.52 9.64079 26.5392 9.68399 26.574 9.71999C26.6874 9.83999 26.844 9.89999 27 9.89999C27.15 9.89999 27.3 9.84599 27.42 9.72599C27.4578 9.68879 27.48 9.64379 27.5058 9.59999H29.4918C29.5152 9.64079 29.5338 9.68459 29.5686 9.71999C29.688 9.83999 29.8446 9.89999 30.0006 9.89999C30.1506 9.89999 30.3006 9.83999 30.4206 9.72599C30.4584 9.68879 30.4806 9.64319 30.5064 9.59999H32.4948C32.52 9.64079 32.5392 9.68459 32.5746 9.71999C32.688 9.83999 32.8446 9.89999 33.0006 9.89999C33.1506 9.89999 33.3006 9.84599 33.4206 9.73199C33.459 9.69359 33.4824 9.64559 33.5082 9.59999H35.4948C35.52 9.64079 35.5392 9.68459 35.5746 9.71999C35.688 9.83999 35.8446 9.89999 36.0006 9.89999C36.1506 9.89999 36.3006 9.83999 36.4206 9.72599C36.4584 9.68879 36.4806 9.64379 36.5064 9.59999H38.4936C38.517 9.64079 38.535 9.68399 38.5692 9.71999C38.6886 9.83999 38.8452 9.89999 39.0012 9.89999C39.1512 9.89999 39.3012 9.84599 39.4212 9.72599C39.459 9.68879 39.4812 9.64379 39.507 9.59999H41.4966C41.5212 9.64079 41.5404 9.68399 41.5752 9.71999C41.6886 9.83999 41.8452 9.89999 42.0012 9.89999C42.1512 9.89999 42.3012 9.83999 42.4212 9.72599C42.459 9.68879 42.4812 9.64379 42.507 9.59999H44.4924C44.5164 9.64079 44.535 9.68459 44.5698 9.71999C44.6892 9.83999 44.8458 9.89999 45.0018 9.89999C45.1518 9.89999 45.3018 9.83999 45.4218 9.72599C45.4596 9.68879 45.4818 9.64379 45.5076 9.59999H47.4966C47.5212 9.64079 47.5404 9.68459 47.5758 9.71999C47.6892 9.83999 47.8458 9.89999 48.0018 9.89999C48.1518 9.89999 48.3018 9.84599 48.4218 9.72599C48.4596 9.68879 48.4818 9.64319 48.5076 9.59999H50.193C50.2182 9.64319 50.2392 9.68879 50.2764 9.72599C50.3142 9.76199 50.3592 9.78299 50.4024 9.80819V11.8908C50.3826 11.9796 50.3826 12.0684 50.4024 12.1572V14.8122C50.34 14.841 50.28 14.8764 50.2284 14.928C49.9938 15.162 49.9938 15.54 50.2284 15.774C50.2788 15.8268 50.3394 15.8622 50.4024 15.8904V17.7702C50.3874 17.7828 50.3682 17.7882 50.3544 17.802C50.1204 18.036 50.1204 18.414 50.3544 18.648C50.3682 18.6624 50.3874 18.6684 50.4024 18.681V20.7906C50.3592 20.8158 50.3136 20.8368 50.2764 20.874C50.0418 21.108 50.0418 21.492 50.2764 21.726C50.3142 21.762 50.3592 21.783 50.4024 21.8082V23.4H46.2714C46.2972 23.2182 46.251 23.0286 46.1118 22.89C45.8778 22.656 45.4938 22.656 45.2598 22.89C45.1218 23.0286 45.075 23.2182 45.1002 23.4H43.449C43.6674 23.1648 43.6662 22.7904 43.4412 22.56C43.2018 22.326 42.8238 22.326 42.5892 22.56C42.3588 22.7904 42.3576 23.1654 42.5808 23.4H40.1028C40.086 23.2752 40.0392 23.154 39.9426 23.058C39.7086 22.824 39.3306 22.824 39.0972 23.058C39 23.154 38.9532 23.2752 38.9364 23.4H37.278C37.3098 23.2152 37.2648 23.0208 37.122 22.878C36.8874 22.644 36.5094 22.644 36.276 22.878C36.1332 23.0208 36.0882 23.2158 36.1194 23.4H34.4022C34.4988 23.181 34.4634 22.9176 34.284 22.734C34.05 22.5 33.672 22.494 33.438 22.728C33.2508 22.911 33.2106 23.1786 33.3114 23.4H31.4022C31.4988 23.181 31.4634 22.9176 31.284 22.734C31.05 22.5 30.672 22.494 30.438 22.728C30.2508 22.911 30.2148 23.1786 30.3138 23.4H28.0614C28.0392 23.2902 27.9972 23.1846 27.912 23.1C27.684 22.86 27.3 22.86 27.066 23.088C26.976 23.1756 26.9304 23.2866 26.9076 23.4H25.2348C25.2444 23.2374 25.1928 23.0712 25.0686 22.944C24.84 22.71 24.462 22.704 24.2226 22.938C24.0954 23.0652 24.0414 23.2338 24.051 23.4H22.4382C22.6224 23.169 22.6188 22.8342 22.4046 22.62C22.1706 22.38 21.792 22.38 21.5586 22.614C21.3366 22.8252 21.324 23.1606 21.5082 23.4H19.4514C19.4634 23.3904 19.4778 23.3868 19.4886 23.376C19.7286 23.142 19.7346 22.764 19.5012 22.524C19.2666 22.29 18.8886 22.284 18.6492 22.518C18.4146 22.752 18.4092 23.13 18.6426 23.364C18.6582 23.3802 18.6792 23.3862 18.696 23.4H16.4034C16.5 23.181 16.4646 22.9176 16.2852 22.734C16.0572 22.5 15.6732 22.494 15.4392 22.728C15.252 22.911 15.2118 23.1786 15.3126 23.4H13.4034C13.5 23.181 13.4646 22.9176 13.2852 22.734C13.0512 22.5 12.6732 22.494 12.4392 22.728C12.252 22.911 12.216 23.1786 12.315 23.4H10.4034C10.5 23.181 10.4646 22.9176 10.2852 22.734C10.0992 22.548 9.82499 22.5126 9.60119 22.6212V14.8248C9.66059 14.844 9.72059 14.862 9.78119 14.862C9.93119 14.862 10.0812 14.802 10.1952 14.694C10.4346 14.466 10.4472 14.088 10.2192 13.848C10.056 13.6764 9.81359 13.6266 9.60119 13.6926V12.231C9.64439 12.2088 9.68879 12.1896 9.72719 12.156C9.97319 11.934 9.99059 11.55 9.76919 11.304C9.72059 11.25 9.66179 11.2116 9.60119 11.1792V9.59999H11.4954ZM45 26.4H39H33H27H21H15H9.59999V24.6H50.4V26.4H45ZM50.4 27.6V30C50.4 31.3236 49.3236 32.4 48 32.4C46.6764 32.4 45.6 31.3236 45.6 30V27.6H50.4ZM44.4 27.6V30C44.4 31.3236 43.3236 32.4 42 32.4C40.6764 32.4 39.6 31.3236 39.6 30V27.6H44.4ZM38.4 27.6V30C38.4 31.3236 37.3236 32.4 36 32.4C34.6764 32.4 33.6 31.3236 33.6 30V27.6H38.4ZM32.4 27.6V30C32.4 31.3236 31.3236 32.4 30 32.4C28.6764 32.4 27.6 31.3236 27.6 30V27.6H32.4ZM26.4 27.6V30C26.4 31.3236 25.3236 32.4 24 32.4C22.6764 32.4 21.6 31.3236 21.6 30V27.6H26.4ZM20.4 27.6V30C20.4 31.3236 19.3236 32.4 18 32.4C16.6764 32.4 15.6 31.3236 15.6 30V27.6H20.4ZM9.59999 27.6H14.4V30C14.4 31.3236 13.3236 32.4 12 32.4C10.6764 32.4 9.59999 31.3236 9.59999 30V27.6ZM3.59999 30V27.6H8.39999V30C8.39999 31.3236 7.32359 32.4 5.99999 32.4C4.67639 32.4 3.59999 31.3236 3.59999 30ZM53.4 53.4H6.59999V33.5436C7.59899 33.3744 8.46059 32.7978 8.99999 31.9854C9.64499 32.9574 10.7484 33.5994 12 33.5994C13.2516 33.5994 14.355 32.9568 15 31.9854C15.645 32.9574 16.7484 33.5994 18 33.5994C19.2516 33.5994 20.355 32.9568 21 31.9854C21.645 32.9574 22.7484 33.5994 24 33.5994C25.2516 33.5994 26.355 32.9568 27 31.9854C27.645 32.9574 28.7484 33.5994 30 33.5994C31.2516 33.5994 32.355 32.9568 33 31.9854C33.645 32.9574 34.7484 33.5994 36 33.5994C37.2516 33.5994 38.355 32.9568 39 31.9854C39.645 32.9574 40.7484 33.5994 42 33.5994C43.2516 33.5994 44.355 32.9568 45 31.9854C45.645 32.9574 46.7484 33.5994 48 33.5994C49.2516 33.5994 50.355 32.9568 51 31.9854C51.5394 32.7978 52.4004 33.3768 53.4 33.5454V53.4ZM54 32.4C52.6764 32.4 51.6 31.3236 51.6 30V27.6H56.4V30C56.4 31.3236 55.3236 32.4 54 32.4Z" fill="#666666"/>
</g>
<g id="Group_3">
<path id="Vector_122" d="M51 27.6H8.99999C8.66819 27.6 8.39999 27.3312 8.39999 27V24C8.39999 23.6688 8.66819 23.4 8.99999 23.4H51C51.3318 23.4 51.6 23.6688 51.6 24V27C51.6 27.3312 51.3318 27.6 51 27.6ZM9.59999 26.4H50.4V24.6H9.59999V26.4Z" fill="#666666"/>
</g>
<g id="Group_4">
<g id="Group_5">
<path id="Vector_123" d="M12.9006 47.7C12.747 47.7 12.5934 47.6412 12.4764 47.5242C12.2418 47.2902 12.2418 46.9104 12.4764 46.6758L16.1184 43.0332C16.353 42.7986 16.7322 42.7986 16.9668 43.0332C17.2014 43.2672 17.2014 43.647 16.9668 43.8816L13.3248 47.5242C13.2078 47.6412 13.0542 47.7 12.9006 47.7Z" fill="#0099AA"/>
</g>
<g id="Group_6">
<path id="Vector_124" d="M13.5 44.1C13.3464 44.1 13.1928 44.0412 13.0758 43.9242C12.8412 43.6896 12.8412 43.3104 13.0758 43.0758L16.9614 39.1902C17.196 38.9556 17.5752 38.9556 17.8098 39.1902C18.0444 39.4248 18.0444 39.804 17.8098 40.0386L13.9242 43.9242C13.8072 44.0412 13.6536 44.1 13.5 44.1Z" fill="#0099AA"/>
</g>
</g>
<g id="Group_7">
<g id="Group_8">
<path id="Vector_125" d="M42.9006 47.7C42.747 47.7 42.5934 47.6412 42.4764 47.5242C42.2418 47.2902 42.2418 46.9104 42.4764 46.6758L46.1184 43.0332C46.353 42.7986 46.7322 42.7986 46.9668 43.0332C47.2014 43.2672 47.2014 43.647 46.9668 43.8816L43.3248 47.5242C43.2078 47.6412 43.0542 47.7 42.9006 47.7Z" fill="#0099AA"/>
</g>
<g id="Group_9">
<path id="Vector_126" d="M43.5 44.1C43.3464 44.1 43.1928 44.0412 43.0758 43.9242C42.8412 43.6896 42.8412 43.3104 43.0758 43.0758L46.9614 39.1902C47.196 38.9556 47.5752 38.9556 47.8098 39.1902C48.0444 39.4248 48.0444 39.804 47.8098 40.0386L43.9242 43.9242C43.8072 44.0412 43.6536 44.1 43.5 44.1Z" fill="#0099AA"/>
</g>
</g>
<g id="Group_10">
<path id="Vector_127" d="M31.5 21.6H28.5C28.1682 21.6 27.9 21.3312 27.9 21V18.6006H25.5C25.1682 18.6006 24.9 18.3318 24.9 18.0006V14.9994C24.9 14.6682 25.1682 14.3994 25.5 14.3994H27.9V12C27.9 11.6688 28.1682 11.4 28.5 11.4H31.5C31.8318 11.4 32.1 11.6688 32.1 12V14.3994H34.5C34.8318 14.3994 35.1 14.6682 35.1 14.9994V18.0006C35.1 18.3318 34.8318 18.6006 34.5 18.6006H32.1V21C32.1 21.3312 31.8318 21.6 31.5 21.6ZM29.1 20.4H30.9V18.0006C30.9 17.6694 31.1682 17.4006 31.5 17.4006H33.9V15.5994H31.5C31.1682 15.5994 30.9 15.3306 30.9 14.9994V12.6H29.1V14.9994C29.1 15.3306 28.8318 15.5994 28.5 15.5994H26.1V17.4006H28.5C28.8318 17.4006 29.1 17.6694 29.1 18.0006V20.4Z" fill="#FF3366"/>
</g>
<path id="Vector_128" d="M21 50.4H20.1V36C20.1 35.6688 19.8318 35.4 19.5 35.4H10.5C10.1682 35.4 9.89999 35.6688 9.89999 36V50.4H8.99999C8.66819 50.4 8.39999 50.6688 8.39999 51C8.39999 51.3312 8.66819 51.6 8.99999 51.6H21C21.3318 51.6 21.6 51.3312 21.6 51C21.6 50.6688 21.3318 50.4 21 50.4ZM11.1 50.4V36.6H18.9V50.4H11.1Z" fill="#0099AA"/>
<path id="Vector_129" d="M51 50.4H50.1V36C50.1 35.6688 49.8318 35.4 49.5 35.4H40.5C40.1682 35.4 39.9 35.6688 39.9 36V50.4H39C38.6682 50.4 38.4 50.6688 38.4 51C38.4 51.3312 38.6682 51.6 39 51.6H51C51.3318 51.6 51.6 51.3312 51.6 51C51.6 50.6688 51.3318 50.4 51 50.4ZM41.1 50.4V36.6H48.9V50.4H41.1Z" fill="#0099AA"/>
</g>
</g>
</g>
</svg>
