<svg width="20" height="20" viewBox="0 0 20 20" fill="none" xmlns="http://www.w3.org/2000/svg">
<g clip-path="url(#clip0_90_315)">
<path d="M18.5714 0H1.42411C0.638393 0 0 0.644287 0 1.43521V18.471C0 19.262 0.638393 19.9062 1.42411 19.9062H18.5714C19.3571 19.9062 20 19.262 20 18.471V1.43521C20 0.644287 19.3571 0 18.5714 0ZM6.04464 17.0625H3.08036V7.5626H6.04911V17.0625H6.04464ZM4.5625 6.26514C3.61161 6.26514 2.84375 5.49644 2.84375 4.55444C2.84375 3.61245 3.61161 2.84375 4.5625 2.84375C5.50893 2.84375 6.28125 3.61245 6.28125 4.55444C6.28125 5.50088 5.51339 6.26514 4.5625 6.26514ZM17.1562 17.0625H14.192V12.4414C14.192 11.3395 14.1696 9.92202 12.6518 9.92202C11.1071 9.92202 10.8705 11.1217 10.8705 12.3614V17.0625H7.90625V7.5626H10.75V8.86006H10.7902C11.1875 8.11357 12.1563 7.3271 13.5982 7.3271C16.5982 7.3271 17.1562 9.29551 17.1562 11.8549V17.0625Z" fill="white"/>
</g>
<defs>
<clipPath id="clip0_90_315">
<rect width="20" height="20" fill="white"/>
</clipPath>
</defs>
</svg>
