<svg width="37" height="37" viewBox="0 0 37 37" fill="none" xmlns="http://www.w3.org/2000/svg">
<g clip-path="url(#clip0_87_609)">
<path fill-rule="evenodd" clip-rule="evenodd" d="M18.5 6.16667C19.1802 6.16667 19.7333 5.61352 19.7333 4.93333C19.7333 4.25315 19.1802 3.7 18.5 3.7C17.8198 3.7 17.2667 4.25315 17.2667 4.93333C17.2667 5.61352 17.8198 6.16667 18.5 6.16667ZM14.8 4.93333C14.8 6.22587 15.9304 8.0808 16.5273 8.88062L18.5 11.3461L20.4851 8.86458C21.0789 8.18502 22.2 6.20798 22.2 4.93333C22.2 2.89278 20.5406 1.23333 18.5 1.23333C16.4595 1.23333 14.8 2.89278 14.8 4.93333ZM15.5517 9.63542C15.3371 9.34867 13.5667 6.91962 13.5667 4.93333C13.5667 2.21322 15.7799 0 18.5 0C21.2201 0 23.4333 2.21322 23.4333 4.93333C23.4333 6.63225 22.1075 8.88308 21.4304 9.65577L18.9816 12.7188C18.8645 12.8649 18.6875 12.95 18.5 12.95C18.3125 12.95 18.1356 12.8649 18.0184 12.7188L15.5517 9.63542ZM25.2833 33.9167C25.6237 33.9167 25.9 33.641 25.9 33.3V24.515L34.0863 22.1766C34.4137 22.0828 34.603 21.7412 34.5093 21.4144C34.4162 21.0863 34.0745 20.9007 33.7471 20.9901L25.1137 23.4568C24.8492 23.5326 24.6667 23.775 24.6667 24.05V33.3C24.6667 33.641 24.9429 33.9167 25.2833 33.9167ZM22.8167 33.3C23.1571 33.3 23.4333 33.0244 23.4333 32.6833V24.05C23.4333 23.7855 23.2644 23.5499 23.0134 23.466L14.3801 20.556C14.0569 20.4456 13.7073 20.6195 13.5987 20.9432C13.4902 21.2658 13.6635 21.616 13.9866 21.7246L22.2 24.4928V32.6833C22.2 33.0244 22.4763 33.3 22.8167 33.3ZM9.07302 16.6759L2.90635 18.5259C2.58013 18.624 2.39452 18.9681 2.49257 19.2937C2.57273 19.5613 2.81755 19.7333 3.08333 19.7333C3.14192 19.7333 3.20112 19.7247 3.26032 19.7074L9.42698 17.8574C9.7532 17.7594 9.93882 17.4153 9.84077 17.0897C9.74272 16.7635 9.39985 16.5809 9.07302 16.6759ZM11.7167 4.93333C11.3763 4.93333 11.1 5.20898 11.1 5.55V16.65C11.1 16.9158 11.2696 17.1507 11.5218 17.2346L22.6218 20.9346C22.6853 20.9562 22.7513 20.9667 22.8167 20.9667C22.9443 20.9667 23.0707 20.9272 23.1768 20.8507C23.3384 20.7342 23.4333 20.548 23.4333 20.35V11.1C23.4333 10.759 23.1571 10.4833 22.8167 10.4833C22.4763 10.4833 22.2 10.759 22.2 11.1V19.4941L12.3333 16.2054V5.55C12.3333 5.20898 12.0571 4.93333 11.7167 4.93333ZM35.779 5.49265C35.1728 5.00055 34.4692 4.80877 33.7471 4.95677L25.1137 7.42343C24.8492 7.49928 24.6667 7.74163 24.6667 8.01667V20.35C24.6667 20.543 24.7573 20.7256 24.9121 20.8427C25.0656 20.958 25.2667 20.9963 25.4529 20.9432L34.0863 18.4766C34.4137 18.3828 34.603 18.0412 34.5093 17.7144C34.4162 17.3863 34.0745 17.1988 33.7471 17.2901L25.9 19.5323V8.48163L34.0425 6.15372C34.4538 6.068 34.8195 6.30295 35.0002 6.44972C35.4657 6.82835 35.7667 7.44317 35.7667 8.01667V31.45C35.7667 32.2603 35.1518 32.8245 33.7471 33.3234L25.3061 35.7352L12.3333 31.0183V20.35C12.3333 20.157 12.2427 19.9745 12.0879 19.8573C11.9337 19.7414 11.7333 19.7043 11.5471 19.7568L2.91375 22.2234C2.5863 22.3172 2.39698 22.6588 2.49072 22.9856C2.58383 23.3137 2.92547 23.4993 3.25292 23.4099L11.1 21.1677V31.45C11.1 31.7096 11.2622 31.9409 11.5058 32.029L25.0724 36.9624C25.1409 36.987 25.2118 37 25.2833 37C25.3401 37 25.3974 36.992 25.4529 36.9766L34.1226 34.4976C34.9095 34.2188 37 33.4776 37 31.45V8.01667C37 7.07317 36.532 6.10562 35.779 5.49265ZM9.84077 31.9859C9.93388 32.3127 9.74457 32.6544 9.41712 32.7481L3.25292 34.5099C3.05188 34.5666 2.85023 34.595 2.6492 34.595C2.16697 34.595 1.69522 34.4322 1.27773 34.1165C0.50135 33.5294 0 32.4829 0 31.45V8.01667C0 5.98907 2.0905 5.24783 2.87737 4.9691L11.5471 2.4901C11.8745 2.40007 12.2162 2.5863 12.3093 2.91437C12.403 3.2412 12.2137 3.58283 11.8862 3.67657L3.25292 6.14323C1.84815 6.64212 1.23333 7.20637 1.23333 8.01667V31.45C1.23333 32.0895 1.55708 32.782 2.02143 33.1329C2.30448 33.3469 2.6048 33.411 2.9156 33.3234L9.07795 31.5622C9.4054 31.471 9.74703 31.6584 9.84077 31.9859Z" fill="#EBDAB2"/>
</g>
<defs>
<clipPath id="clip0_87_609">
<rect width="37" height="37" fill="white"/>
</clipPath>
</defs>
</svg>
