<svg width="54" height="54" viewBox="0 0 54 54" fill="none" xmlns="http://www.w3.org/2000/svg">
<path d="M27 23.625C25.1332 23.625 23.625 25.1332 23.625 27C23.625 28.8668 25.1332 30.375 27 30.375C28.8668 30.375 30.375 28.8668 30.375 27C30.375 25.1332 28.8668 23.625 27 23.625Z" fill="#EBDAB2"/>
<path d="M13.5422 23.625C11.6754 23.625 10.1672 25.1332 10.1672 27C10.1672 28.8668 11.6754 30.375 13.5422 30.375C15.409 30.375 16.9172 28.8668 16.9172 27C16.9172 25.1332 15.3984 23.625 13.5422 23.625Z" fill="#EBDAB2"/>
<path d="M40.5 23.625C38.6332 23.625 37.125 25.1332 37.125 27C37.125 28.8668 38.6332 30.375 40.5 30.375C42.3668 30.375 43.875 28.8668 43.875 27C43.875 25.1332 42.3668 23.625 40.5 23.625Z" fill="#EBDAB2"/>
</svg>
