<svg width="319" height="444" viewBox="0 0 319 444" fill="none" xmlns="http://www.w3.org/2000/svg">
<path d="M104.445 183.401L153.193 211.611L201.942 183.401V126.979L153.193 98.7692L104.445 126.979V183.401ZM163.113 87.542L212.358 116.039L261.603 87.541V30.5441L212.358 2.0451L163.113 30.5421V87.542ZM219.405 183.398L268.65 211.614L317.895 183.398V126.981L268.65 98.7662L219.405 126.981V183.398ZM212.358 312.94L261.603 284.442V227.444L212.358 198.947L163.113 227.444V284.442L212.358 312.94ZM-70.1764 282.428L-21.428 310.636L27.3194 282.428V226.004L-21.428 197.795L-70.1764 226.004V282.428ZM-11.5087 186.568L37.7365 215.064L86.9817 186.568V129.57L37.7365 101.072L-11.5087 129.57V186.568ZM44.7836 282.425L94.0288 310.639L143.274 282.425V226.007L94.0288 197.793L44.7836 226.007V282.425ZM37.7365 411.965L86.9817 383.468V326.47L37.7365 297.973L-11.5087 326.47V383.468L37.7365 411.965Z" stroke="#EBDAB2" stroke-width="1.99523"/>
</svg>
