<svg width="20" height="22" viewBox="0 0 20 22" fill="none" xmlns="http://www.w3.org/2000/svg">
<g clip-path="url(#clip0_90_310)">
<path d="M17.8571 0.92627H2.14286C0.959821 0.92627 0 1.88451 0 3.06559V18.7539C0 19.935 0.959821 20.8932 2.14286 20.8932H17.8571C19.0402 20.8932 20 19.935 20 18.7539V3.06559C20 1.88451 19.0402 0.92627 17.8571 0.92627ZM15.6741 8.00384C15.683 8.12864 15.683 8.25789 15.683 8.38268C15.683 12.2468 12.7366 16.6993 7.35268 16.6993C5.69196 16.6993 4.15179 16.2179 2.85714 15.3889C3.09375 15.4157 3.32143 15.4246 3.5625 15.4246C4.93304 15.4246 6.19196 14.9611 7.19643 14.1767C5.91071 14.1499 4.83036 13.3076 4.45982 12.1488C4.91071 12.2156 5.31696 12.2156 5.78125 12.0953C4.44196 11.8234 3.4375 10.6468 3.4375 9.22504V9.18938C3.82589 9.40777 4.28125 9.54148 4.75893 9.55931C4.35733 9.29262 4.02812 8.93082 3.80066 8.50621C3.5732 8.08159 3.45457 7.60736 3.45536 7.12583C3.45536 6.58209 3.59821 6.08292 3.85268 5.6506C5.29464 7.42445 7.45982 8.58324 9.88839 8.70804C9.47321 6.72471 10.9598 5.11577 12.7455 5.11577C13.5893 5.11577 14.3482 5.46786 14.8839 6.03835C15.5446 5.91355 16.1786 5.66842 16.7411 5.33415C16.5223 6.0116 16.0625 6.58209 15.4554 6.9431C16.0446 6.8807 16.6161 6.7158 17.1429 6.48849C16.7455 7.07235 16.2455 7.58935 15.6741 8.00384Z" fill="white"/>
</g>
<defs>
<clipPath id="clip0_90_310">
<rect width="20" height="21" fill="white" transform="translate(0 0.5)"/>
</clipPath>
</defs>
</svg>
